# xmcd
#
# Track frame offsets:
#	150
#	14395
#	26925
#	39662
#	50467
#	64700
#	82802
#	93870
#	115520
#	123800
#	143805
#
# Disc length: 2063 seconds
#
# Revision: 1
# Processed by: cddbd v1.5.1PL0 Copyright (c) Steve Scherf et al.
# Submitted via: CDex 1.50Beta5
#
DISCID=83080d0b
DTITLE=ピーター・アイヴァース - ターミナル・ラヴ
DYEAR=2001
DGENRE=Rock
TTITLE0=アルファ・セントーリ
TTITLE1=スウィート・エネミー
TTITLE2=ターミナル・ラヴ
TTITLE3=マイ・グランドマザーズ・フューネラル
TTITLE4=モダン・タイムス
TTITLE5=デボラ
TTITLE6=ウー・ガール
TTITLE7=オーディエンス・オブ・ワン
TTITLE8=フェラダディーオ
TTITLE9=ホールディング・ザ・コブラ
TTITLE10=イーヴン・スティーヴン・フォスター
EXTD=
EXTT0=
EXTT1=
EXTT2=
EXTT3=
EXTT4=
EXTT5=
EXTT6=
EXTT7=
EXTT8=
EXTT9=
EXTT10=
PLAYORDER=
